<svg xmlns="http://www.w3.org/2000/svg" width="1970" height="44" fill="none"><mask id="c" width="1970" height="44" x="0" y="0" maskUnits="userSpaceOnUse" style="mask-type:alpha"><path fill="url(#a)" d="M.383 0h1969.23v44H.383z"/></mask><g clip-path="url(#b)" mask="url(#c)"><path stroke="#fff" stroke-width="1.3" d="M-165.916 39.132V21.866m9.142 17.266v-8.125m9.142 8.125v-8.125m9.143 8.125v-8.125m9.142 8.125v-8.125m9.142 8.125v-8.125m9.142 8.125v-8.125m9.143 8.125v-8.125m9.142 8.125v-8.125m9.142 8.125v-8.125m9.142 8.125v-8.125m9.142 8.125v-8.125m9.143 8.125v-8.125m9.142 8.125v-8.125m9.142 8.125v-8.125m9.142 8.125v-8.125m9.143 8.125v-8.125m9.142 8.125v-8.125m9.142 8.125v-8.125m9.142 8.125v-8.125m9.143 8.125v-8.125m9.142 8.125v-16.25m9.142 16.25v-8.125m9.142 8.125v-8.125m9.143 8.125v-8.125m9.142 8.125v-8.125m9.142 8.125v-8.125m9.142 8.125v-8.125m9.142 8.125v-8.125m9.143 8.125v-8.125m9.142 8.125v-8.125m9.142 8.125v-8.125m9.142 8.125v-8.125m9.143 8.125v-8.125m9.142 8.125v-8.125m9.142 8.125v-8.125m9.142 8.125v-8.125m9.142 8.125v-8.125m9.143 8.125v-8.125m9.142 8.125v-8.125m9.142 8.125v-8.125m9.142 8.125v-8.125m9.143 8.125v-16.25m9.142 16.25v-8.125m9.142 8.125v-8.125m9.142 8.125v-8.125m9.143 8.125v-8.125m9.142 8.125v-8.125m9.142 8.125v-8.125m9.142 8.125v-8.125m9.142 8.125v-8.125m9.143 8.125v-8.125m9.142 8.125v-8.125m9.142 8.125v-8.125m9.142 8.125v-8.125m9.143 8.125v-8.125m9.142 8.125v-8.125m9.142 8.125v-8.125m9.142 8.125v-8.125m9.143 8.125v-8.125m9.142 8.125v-8.125m9.142 8.125v-8.125m9.142 8.125v-8.125m9.142 8.125v-16.25m9.143 16.25v-8.125m9.142 8.125v-8.125m9.142 8.125v-8.125m9.142 8.125v-8.125m9.143 8.125v-8.125m9.142 8.125v-8.125m9.142 8.125v-8.125m9.142 8.125v-8.125m9.143 8.125v-8.125m9.142 8.125v-8.125m9.142 8.125v-8.125m9.142 8.125v-8.125m9.142 8.125v-8.125m9.143 8.125v-8.125m9.142 8.125v-8.125m9.142 8.125v-8.125m9.142 8.125v-8.125m9.143 8.125v-8.125m9.142 8.125v-8.125m9.142 8.125v-8.125m9.142 8.125v-16.25m9.143 16.25v-8.125m9.142 8.125v-8.125m9.142 8.125v-8.125m9.142 8.125v-8.125m9.142 8.125v-8.125m9.143 8.125v-8.125m9.142 8.125v-8.125m9.142 8.125v-8.125m9.142 8.125v-8.125m9.143 8.125v-8.125m9.142 8.125v-8.125m9.142 8.125v-8.125m9.142 8.125v-8.125m9.143 8.125v-8.125m9.142 8.125v-8.125m9.142 8.125v-8.125m9.142 8.125v-8.125m9.142 8.125v-8.125m9.143 8.125v-8.125m9.142 8.125v-8.125m9.142 8.125v-16.25m9.142 16.25v-8.125m9.143 8.125v-8.125m9.142 8.125v-8.125m9.142 8.125v-8.125m9.142 8.125v-8.125m9.143 8.125v-8.125m9.142 8.125v-8.125m9.142 8.125v-8.125m9.142 8.125v-8.125m9.142 8.125v-8.125m9.143 8.125v-8.125m9.142 8.125v-8.125m9.142 8.125v-8.125m9.142 8.125v-8.125m9.143 8.125v-8.125m9.142 8.125v-8.125m9.142 8.125v-8.125m9.142 8.125v-8.125m9.143 8.125v-8.125m9.142 8.125v-8.125m9.142 8.125v-16.25m9.142 16.25v-8.125m9.143 8.125v-8.125m9.14 8.125v-8.125m9.14 8.125v-8.125m9.15 8.125v-8.125m9.14 8.125v-8.125m9.14 8.125v-8.125m9.14 8.125v-8.125m9.15 8.125v-8.125m9.14 8.125v-8.125m9.14 8.125v-8.125m9.14 8.125v-8.125m9.14 8.125v-8.125m9.15 8.125v-8.125m9.14 8.125v-8.125m9.14 8.125v-8.125m9.14 8.125v-8.125m9.15 8.125v-8.125m9.14 8.125v-8.125m9.14 8.125v-8.125m9.14 8.125v-16.25m9.14 16.25v-8.125m9.15 8.125v-8.125m9.14 8.125v-8.125m9.14 8.125v-8.125m9.14 8.125v-8.125m9.15 8.125v-8.125m9.14 8.125v-8.125m9.14 8.125v-8.125m9.14 8.125v-8.125m9.14 8.125v-8.125m9.15 8.125v-8.125m9.14 8.125v-8.125m9.14 8.125v-8.125m9.14 8.125v-8.125m9.15 8.125v-8.125m9.14 8.125v-8.125m9.14 8.125v-8.125m9.14 8.125v-8.125m9.14 8.125v-8.125m9.15 8.125v-8.125m9.14 8.125v-16.25m9.14 16.25v-8.125m9.14 8.125v-8.125m9.15 8.125v-8.125m9.14 8.125v-8.125m9.14 8.125v-8.125m9.14 8.125v-8.125m9.14 8.125v-8.125m9.15 8.125v-8.125m9.14 8.125v-8.125m9.14 8.125v-8.125m9.14 8.125v-8.125m9.15 8.125v-8.125m9.14 8.125v-8.125m9.14 8.125v-8.125m9.14 8.125v-8.125m9.14 8.125v-8.125m9.15 8.125v-8.125m9.14 8.125v-8.125m9.14 8.125v-8.125m9.14 8.125v-8.125m9.15 8.125v-16.25m9.14 16.25v-8.125m9.14 8.125v-8.125m9.14 8.125v-8.125m9.14 8.125v-8.125m9.15 8.125v-8.125m9.14 8.125v-8.125m9.14 8.125v-8.125m9.14 8.125v-8.125m9.15 8.125v-8.125m9.14 8.125v-8.125m9.14 8.125v-8.125m9.14 8.125v-8.125m9.14 8.125v-8.125m9.15 8.125v-8.125m9.14 8.125v-8.125m9.14 8.125v-8.125m9.14 8.125v-8.125m9.15 8.125v-8.125m9.14 8.125v-8.125m9.14 8.125v-8.125m9.14 8.125v-16.25m9.14 16.25v-8.125m9.15 8.125v-8.125m9.14 8.125v-8.125m9.14 8.125v-8.125m9.14 8.125v-8.125m9.15 8.125v-8.125m9.14 8.125v-8.125m9.14 8.125v-8.125m9.14 8.125v-8.125m9.14 8.125v-8.125m9.15 8.125v-8.125m9.14 8.125v-8.125m9.14 8.125v-8.125m9.14 8.125v-8.125m9.15 8.125v-8.125m9.14 8.125v-8.125m9.14 8.125v-8.125m9.14 8.125v-8.125m9.14 8.125v-8.125m9.15 8.125v-8.125m9.14 8.125v-16.25m9.14 16.25v-8.125m9.14 8.125v-8.125m9.15 8.125v-8.125m9.14 8.125v-8.125m9.14 8.125v-8.125m9.14 8.125v-8.125m9.14 8.125v-8.125m9.15 8.125v-8.125m9.14 8.125v-8.125m9.14 8.125v-8.125m9.14 8.125v-8.125m9.15 8.125v-8.125m9.14 8.125v-8.125m9.14 8.125v-8.125m9.14 8.125v-8.125m9.14 8.125v-8.125m9.15 8.125v-8.125m9.14 8.125v-8.125m9.14 8.125v-8.125m9.14 8.125v-8.125m9.15 8.125v-16.25" opacity=".32"/><path fill="#fff" d="M-168.439 7.866c-.534 0-.993-.135-1.377-.406-.38-.272-.673-.665-.879-1.178-.203-.515-.305-1.136-.305-1.86.002-.725.105-1.342.308-1.85.206-.511.5-.9.88-1.168.383-.27.841-.404 1.373-.404.533 0 .99.135 1.373.403.384.269.677.658.881 1.168.205.511.308 1.128.308 1.851 0 .727-.103 1.348-.308 1.863-.203.513-.498.904-.881 1.175-.381.271-.838.406-1.373.406Zm0-1.016c.416 0 .743-.205.984-.614.243-.411.364-1.016.364-1.814 0-.528-.055-.972-.166-1.33-.11-.36-.266-.63-.467-.813-.194-.18-.45-.28-.715-.275-.413 0-.74.205-.98.616-.24.41-.362 1.01-.364 1.802-.002.53.051.975.159 1.337.111.361.267.634.468.818.201.182.441.273.717.273Zm5.979-5.758v6.647h-1.204V2.263h-.039l-1.555.993V2.153l1.652-1.062h1.146ZM22.906 7.866c-.536 0-.994-.135-1.377-.406-.38-.272-.674-.665-.88-1.178-.204-.515-.305-1.136-.305-1.86.002-.725.104-1.342.309-1.85.205-.511.498-.9.88-1.168.382-.27.84-.404 1.373-.404.532 0 .99.135 1.373.403.383.269.676.658.88 1.168.205.511.308 1.128.308 1.851 0 .727-.103 1.348-.308 1.863-.204.513-.497.904-.88 1.175-.38.271-.839.406-1.373.406Zm0-1.016c.415 0 .743-.205.983-.614.243-.411.364-1.016.364-1.814 0-.528-.055-.972-.166-1.33-.11-.36-.266-.63-.467-.813-.194-.18-.45-.28-.714-.275-.414 0-.74.205-.982.616-.24.41-.36 1.01-.362 1.802-.003.53.05.975.158 1.337.111.361.266.634.468.818.202.182.44.273.718.273Zm3.274.89v-.87l2.308-2.263c.221-.223.405-.422.552-.594.147-.173.257-.341.331-.503.073-.162.111-.335.111-.52a.98.98 0 0 0-.143-.538.953.953 0 0 0-.393-.352 1.264 1.264 0 0 0-.568-.121c-.219 0-.41.044-.575.135a.942.942 0 0 0-.383.38 1.225 1.225 0 0 0-.133.587H26.14c0-.422.097-.789.289-1.1a1.95 1.95 0 0 1 .795-.724A2.568 2.568 0 0 1 28.395 1c.445 0 .836.084 1.174.25.338.167.6.395.786.685.189.29.282.621.282.994 0 .248-.048.493-.142.733-.096.24-.263.506-.504.799-.314.373-.648.727-1.003 1.061l-1.145 1.166v.045h2.895v1.006H26.18Zm188.573.126c-.534 0-.993-.135-1.376-.406-.381-.272-.674-.665-.88-1.178-.203-.515-.305-1.136-.305-1.86.003-.725.105-1.342.308-1.85.207-.511.5-.9.881-1.168.383-.27.84-.404 1.372-.404.534 0 .991.135 1.374.403.383.269.676.658.879 1.168.207.511.309 1.128.309 1.851 0 .727-.102 1.348-.309 1.863-.203.513-.496.904-.879 1.175-.381.271-.838.406-1.374.406Zm0-1.016c.417 0 .744-.205.985-.614.241-.411.363-1.016.363-1.814 0-.528-.056-.972-.165-1.33-.111-.36-.266-.63-.468-.813-.193-.18-.45-.28-.715-.275-.413 0-.739.205-.98.616-.24.41-.362 1.01-.364 1.802-.002.53.051.975.16 1.337.111.361.266.634.467.818.201.182.441.273.717.273Zm5.661.98c-.467 0-.882-.08-1.246-.24a2.08 2.08 0 0 1-.857-.668 1.732 1.732 0 0 1-.335-.99h1.221c.011.18.071.335.178.47.109.132.253.234.432.308.18.073.381.11.604.11.238 0 .449-.04.633-.122.184-.085.328-.203.432-.351a.855.855 0 0 0 .152-.516.892.892 0 0 0-.155-.532 1.041 1.041 0 0 0-.461-.361 1.802 1.802 0 0 0-.72-.13h-.589V3.88h.589c.231 0 .433-.04.606-.12a.976.976 0 0 0 .412-.338.872.872 0 0 0 .147-.51.887.887 0 0 0-.127-.49.859.859 0 0 0-.36-.328 1.189 1.189 0 0 0-.542-.117 1.42 1.42 0 0 0-.565.111 1.035 1.035 0 0 0-.42.315.804.804 0 0 0-.168.48h-1.159c.002-.352.115-.695.322-.98a2.06 2.06 0 0 1 .831-.662 2.74 2.74 0 0 1 1.165-.24c.444 0 .829.083 1.156.25.329.164.583.385.763.665.179.279.269.588.269.925.002.375-.108.688-.331.941a1.55 1.55 0 0 1-.87.497v.052c.467.065.826.238 1.075.52.251.278.375.625.373 1.042 0 .371-.106.705-.318 1a2.122 2.122 0 0 1-.87.687 3.028 3.028 0 0 1-1.267.25Zm186.26.036c-.535 0-.993-.135-1.377-.406-.381-.272-.674-.665-.88-1.178-.203-.515-.305-1.136-.305-1.86.002-.725.105-1.342.308-1.85.206-.511.5-.9.881-1.168.383-.27.84-.404 1.373-.404.532 0 .99.135 1.373.403.384.269.676.658.88 1.168.205.511.308 1.128.308 1.851 0 .727-.103 1.348-.308 1.863-.204.513-.496.904-.88 1.175-.381.271-.839.406-1.373.406Zm0-1.016c.416 0 .743-.205.983-.614.243-.411.364-1.016.364-1.814 0-.528-.055-.972-.165-1.33-.111-.36-.267-.63-.468-.813a1.022 1.022 0 0 0-.714-.275c-.413 0-.74.205-.981.616-.24.41-.361 1.01-.364 1.802-.002.53.051.975.16 1.337.11.361.266.634.467.818.201.182.441.273.718.273Zm3.154-.345v-.957l2.821-4.457h.799v1.364h-.487l-1.9 3.01v.05H415v.99h-5.172ZM413 7.74V6.214l.013-.429V1.091h1.136v6.648H413Zm185.812.127c-.534 0-.993-.135-1.376-.406-.381-.272-.675-.665-.88-1.178-.204-.515-.305-1.136-.305-1.86.002-.725.105-1.342.308-1.85.206-.511.499-.9.88-1.168.383-.27.841-.404 1.373-.404.533 0 .991.135 1.374.403.383.269.676.658.879 1.168.206.511.309 1.128.309 1.851 0 .727-.103 1.348-.309 1.863-.203.513-.496.904-.879 1.175-.381.271-.839.406-1.374.406Zm0-1.016c.416 0 .744-.205.984-.614.242-.411.363-1.016.363-1.814 0-.528-.055-.972-.165-1.33-.11-.36-.266-.63-.468-.813a1.02 1.02 0 0 0-.714-.275c-.413 0-.74.205-.98.616-.241.41-.362 1.01-.364 1.802-.002.53.051.975.159 1.337.111.361.266.634.468.818.201.182.44.273.717.273Zm5.586.98a2.68 2.68 0 0 1-1.162-.243 2.067 2.067 0 0 1-.814-.676 1.775 1.775 0 0 1-.319-.98h1.169a.916.916 0 0 0 .353.669c.215.171.473.257.773.257a1.17 1.17 0 0 0 1.065-.613c.107-.194.158-.413.156-.661a1.32 1.32 0 0 0-.159-.668 1.188 1.188 0 0 0-.445-.457 1.239 1.239 0 0 0-.649-.169 1.54 1.54 0 0 0-.587.11 1.207 1.207 0 0 0-.458.298l-1.088-.177.347-3.428h3.857v1.005h-2.861l-.191 1.763h.039c.124-.145.298-.265.523-.36.234-.1.486-.15.74-.146a2.024 2.024 0 0 1 1.825 1.064c.182.331.272.711.272 1.138 0 .438-.101.83-.304 1.174a2.16 2.16 0 0 1-.841.808c-.382.2-.809.301-1.241.293Zm186.33.036c-.535 0-.993-.135-1.376-.406-.381-.272-.675-.665-.881-1.178-.203-.515-.305-1.136-.305-1.86.002-.725.105-1.342.309-1.85.205-.511.499-.9.88-1.168.383-.27.84-.404 1.373-.404.532 0 .989.135 1.373.403.383.269.676.658.88 1.168.205.511.308 1.128.308 1.851 0 .727-.103 1.348-.308 1.863-.204.513-.497.904-.88 1.175-.38.271-.839.406-1.373.406Zm0-1.016c.416 0 .744-.205.983-.614.243-.411.364-1.016.364-1.814 0-.528-.055-.972-.166-1.33-.11-.36-.266-.63-.467-.813a1.022 1.022 0 0 0-.714-.275c-.413 0-.74.205-.981.616-.24.41-.361 1.01-.364 1.802-.002.53.052.975.16 1.337.11.361.266.634.467.818.201.182.441.273.718.273Zm5.709.98a2.81 2.81 0 0 1-.932-.166 2.183 2.183 0 0 1-.817-.535c-.243-.25-.436-.58-.578-.99-.144-.414-.214-.925-.212-1.535 0-.569.061-1.077.182-1.524.103-.405.28-.787.522-1.128a2.32 2.32 0 0 1 .822-.708A2.37 2.37 0 0 1 796.505 1c.418 0 .788.083 1.11.247a2.126 2.126 0 0 1 1.156 1.636h-1.184a1.084 1.084 0 0 0-.374-.61c-.186-.153-.422-.23-.708-.23-.461 0-.816.2-1.065.6-.246.4-.37.95-.373 1.65h.045a1.66 1.66 0 0 1 .413-.491c.357-.28.797-.43 1.25-.429a1.999 1.999 0 0 1 1.789 1.05c.182.324.271.696.269 1.116.008.413-.095.82-.298 1.178a2.176 2.176 0 0 1-.842.818c-.359.2-.778.299-1.256.296Zm-.006-.974c.235 0 .447-.057.633-.172a1.262 1.262 0 0 0 .6-1.119 1.298 1.298 0 0 0-.155-.646 1.19 1.19 0 0 0-.432-.458 1.182 1.182 0 0 0-.63-.169 1.193 1.193 0 0 0-.887.38 1.302 1.302 0 0 0-.363.902c.002.231.056.445.162.64.107.195.252.35.439.467.186.117.397.175.633.175Zm188.181 1.01c-.538 0-.995-.135-1.381-.406-.376-.272-.67-.665-.874-1.178-.213-.515-.315-1.136-.315-1.86.011-.725.112-1.342.315-1.85.204-.511.498-.9.874-1.168.386-.27.843-.404 1.381-.404.529 0 .986.135 1.372.403.386.269.67.658.873 1.168.214.511.315 1.128.315 1.851 0 .727-.101 1.348-.315 1.863-.203.513-.487.904-.873 1.175s-.843.406-1.372.406Zm0-1.016c.417 0 .742-.205.976-.614.243-.411.365-1.016.365-1.814 0-.528-.05-.972-.162-1.33-.112-.36-.264-.63-.468-.813a1.023 1.023 0 0 0-.711-.275c-.416 0-.741.205-.985.616-.244.41-.355 1.01-.366 1.802 0 .53.051.975.163 1.337.112.361.264.634.467.818.203.182.437.273.721.273Zm3.332.89 2.834-5.597v-.046h-3.281V1.092h4.521V2.12l-2.824 5.618h-1.25Zm186.766.126c-.53 0-.99-.135-1.37-.406-.39-.272-.67-.665-.89-1.178-.2-.515-.3-1.136-.3-1.86.01-.725.11-1.342.32-1.85.2-.511.49-.9.87-1.168.38-.27.84-.404 1.37-.404.54 0 1 .135 1.38.403.38.269.67.658.87 1.168.22.511.32 1.128.32 1.851 0 .727-.1 1.348-.32 1.863-.2.513-.49.904-.87 1.175s-.84.406-1.38.406Zm0-1.016c.42 0 .75-.205.99-.614.24-.411.36-1.016.36-1.814 0-.528-.05-.972-.16-1.33-.11-.36-.27-.63-.47-.813a1.03 1.03 0 0 0-.72-.275c-.41 0-.73.205-.98.616-.24.41-.36 1.01-.36 1.802 0 .53.05.975.16 1.337.11.361.27.634.47.818.2.182.44.273.71.273Zm5.65.98c-.49 0-.92-.08-1.29-.243a2.154 2.154 0 0 1-.88-.665 1.577 1.577 0 0 1-.31-.965c0-.264.06-.524.18-.76.11-.235.29-.439.5-.594.21-.158.45-.258.71-.302v-.044a1.386 1.386 0 0 1-.83-.523 1.552 1.552 0 0 1-.32-.951c0-.342.09-.647.29-.916.19-.268.45-.48.79-.633.33-.155.72-.234 1.16-.234.41 0 .8.079 1.14.234.33.153.59.366.79.633.19.269.28.574.28.916 0 .358-.1.676-.31.95-.22.274-.49.447-.83.524V4.3c.27.044.5.144.71.303.21.155.37.35.49.584.14.233.2.49.2.769 0 .36-.12.68-.33.965-.2.28-.5.502-.87.665a3.12 3.12 0 0 1-1.27.244Zm0-.929c.24 0 .45-.041.64-.126a.923.923 0 0 0 .43-.363c.11-.16.16-.348.16-.539a.98.98 0 0 0-.17-.562 1.176 1.176 0 0 0-.43-.386 1.42 1.42 0 0 0-.63-.14c-.25 0-.46.046-.64.14-.18.088-.34.221-.45.386-.1.162-.15.35-.15.561 0 .204.05.383.15.539.1.154.24.274.43.361.18.087.4.13.66.13Zm0-3.027c.2 0 .37-.041.54-.124a.988.988 0 0 0 .37-.356c.09-.15.14-.322.13-.497a.977.977 0 0 0-.13-.501.897.897 0 0 0-.37-.334 1.184 1.184 0 0 0-.54-.12c-.22 0-.4.04-.56.12a.866.866 0 0 0-.38.335c-.08.153-.12.325-.12.499 0 .193.04.362.13.51.09.145.22.26.37.345.16.081.34.123.56.123Zm186.33 3.992c-.53 0-1-.135-1.37-.406-.39-.272-.69-.665-.89-1.178-.2-.515-.3-1.136-.3-1.86 0-.725.1-1.342.3-1.85.21-.511.5-.9.89-1.168.38-.27.84-.404 1.37-.404.53 0 .99.135 1.37.403.38.269.68.658.88 1.168.2.511.31 1.128.31 1.851 0 .727-.11 1.348-.31 1.863-.2.513-.5.904-.88 1.175s-.84.406-1.37.406Zm0-1.016c.41 0 .74-.205.98-.614.25-.411.37-1.016.37-1.814 0-.528-.06-.972-.18-1.33-.1-.36-.26-.63-.46-.813-.19-.182-.45-.28-.71-.275-.42 0-.74.205-.98.616-.24.41-.36 1.01-.36 1.802 0 .53.05.975.16 1.337.1.361.26.634.47.818.19.182.43.273.71.273Zm5.58-5.85c.32.002.63.06.93.169.3.109.58.286.82.532.24.245.44.573.58.984.14.412.21.92.21 1.526.01.516-.05 1.031-.18 1.531-.12.448-.29.827-.53 1.138a2.252 2.252 0 0 1-1.9.95c-.41 0-.79-.083-1.12-.246a2.068 2.068 0 0 1-1.14-1.655h1.19c.06.263.18.473.36.629.19.152.43.23.71.23.46 0 .81-.2 1.07-.6.24-.4.37-.956.37-1.668h-.05c-.1.19-.24.354-.4.492-.17.137-.37.242-.58.315a2.05 2.05 0 0 1-.67.11c-.4 0-.74-.093-1.06-.279a1.995 1.995 0 0 1-.74-.765 2.27 2.27 0 0 1-.26-1.113c0-.434.09-.822.29-1.166.2-.346.48-.62.84-.818.36-.201.78-.3 1.26-.296Zm0 .974c-.23 0-.44.057-.63.173-.19.112-.33.265-.44.46a1.383 1.383 0 0 0 0 1.289c.1.193.25.353.44.463a1.26 1.26 0 0 0 1.11.066c.15-.065.28-.161.4-.282.11-.122.2-.26.26-.413.07-.153.1-.315.1-.487 0-.22-.05-.436-.16-.628a1.2 1.2 0 0 0-.45-.466c-.18-.119-.4-.18-.63-.175Zm187.42-.883V7.74h-1.21V2.263h-.03l-1.55.993V2.153l1.64-1.062h1.15Zm3.78 6.774c-.53 0-1-.135-1.37-.405-.39-.272-.68-.665-.89-1.178-.2-.515-.3-1.136-.3-1.86 0-.725.1-1.342.3-1.85.22-.511.5-.9.89-1.168.38-.27.84-.404 1.37-.404.54 0 .99.135 1.37.403.39.269.68.658.88 1.168.21.511.31 1.128.31 1.851 0 .727-.1 1.348-.31 1.863-.2.513-.49.904-.88 1.175-.38.271-.83.405-1.37.405Zm0-1.016c.41 0 .74-.204.98-.613.25-.411.37-1.016.37-1.814 0-.528-.06-.972-.16-1.33-.12-.36-.28-.63-.48-.813-.19-.182-.45-.28-.71-.275-.42 0-.74.205-.98.616-.24.41-.36 1.01-.36 1.802 0 .53.05.975.16 1.337.1.361.26.634.47.818a.99.99 0 0 0 .71.272Zm189.57-5.758V7.74h-1.21V2.263h-.03l-1.57.993V2.153l1.66-1.062h1.15Zm4.02 0V7.74h-1.2V2.263h-.04l-1.55.993V2.153l1.65-1.062h1.14Zm186.82 0V7.74h-1.21V2.263h-.04l-1.56.993V2.153l1.66-1.062h1.15Zm1.32 6.648v-.87l2.3-2.262c.23-.223.41-.422.55-.594.15-.173.27-.341.34-.503a1.3 1.3 0 0 0 .11-.52c0-.19-.05-.376-.14-.538-.1-.152-.24-.274-.4-.352a1.256 1.256 0 0 0-.57-.121c-.21 0-.41.044-.57.135a.877.877 0 0 0-.38.38c-.1.164-.14.36-.14.587h-1.14c0-.422.1-.789.28-1.1.19-.312.47-.553.8-.724a2.57 2.57 0 0 1 1.17-.257c.45 0 .83.084 1.18.25.33.167.6.395.78.685a1.862 1.862 0 0 1 .14 1.727c-.1.24-.26.506-.5.799-.24.292-.57.646-1.01 1.061l-1.14 1.166v.045h2.9V7.74h-4.56Zm190.52-6.648V7.74h-1.21V2.263h-.03l-1.55.993V2.153l1.64-1.062h1.15Zm3.71 6.74c-.47 0-.89-.082-1.25-.241a2.09 2.09 0 0 1-.85-.668 1.625 1.625 0 0 1-.34-.99h1.22c.01.18.07.335.18.47.11.132.26.234.43.308.18.073.38.11.61.11.23 0 .45-.04.63-.122.17-.078.32-.199.43-.351a.872.872 0 0 0 .16-.516c0-.19-.05-.377-.17-.532a.987.987 0 0 0-.45-.361 1.827 1.827 0 0 0-.72-.13h-.59V3.88h.59c.23 0 .43-.04.61-.12a.928.928 0 0 0 .4-.338c.1-.148.15-.317.15-.51a.846.846 0 0 0-.13-.49.797.797 0 0 0-.35-.328 1.195 1.195 0 0 0-.55-.117c-.2 0-.39.037-.56.111-.16.066-.31.175-.42.315a.765.765 0 0 0-.17.48h-1.16c.01-.372.11-.7.33-.98.2-.284.48-.504.82-.662.35-.16.74-.24 1.17-.24.45 0 .83.083 1.16.25.32.164.58.385.76.665.18.279.27.588.27.925 0 .375-.11.688-.33.941-.23.254-.51.419-.88.497v.052c.47.065.84.238 1.08.52.25.278.38.625.38 1.042 0 .371-.12.705-.33 1-.2.292-.5.52-.86.687-.37.166-.79.25-1.27.25Z" opacity=".6"/></g><defs><linearGradient id="a" x1=".383" x2="1969.61" y1="22" y2="22" gradientUnits="userSpaceOnUse"><stop offset=".02" stop-opacity="0"/><stop offset=".254"/><stop offset=".5"/><stop offset=".75"/><stop offset=".98" stop-opacity="0"/></linearGradient><clipPath id="b"><path fill="#fff" d="M-172 1h2314v38.594H-172z"/></clipPath></defs></svg>